<?xml version="1.0" standalone="no"?>
<!DOCTYPE svg PUBLIC "-//W3C//DTD SVG 20010904//EN"
 "http://www.w3.org/TR/2001/REC-SVG-20010904/DTD/svg10.dtd">
<svg version="1.0" xmlns="http://www.w3.org/2000/svg" viewBox="200 300 500.000000 480.000000"
 preserveAspectRatio="xMidYMid meet">

<g transform="translate(0.000000,1152.000000) scale(0.100000,-0.100000)"
fill="#000000" stroke="none">
<path d="M4315 8270 c-139 -23 -174 -32 -266 -71 -124 -53 -252 -148 -285
-210 -28 -54 -4 -49 87 20 188 143 358 195 639 195 223 0 427 -45 638 -139 17
-8 49 -23 70 -32 40 -18 134 -73 142 -83 3 -3 28 -23 55 -44 67 -49 188 -170
232 -229 34 -46 60 -67 82 -67 18 0 12 25 -23 96 -66 131 -240 292 -426 391
-89 48 -309 137 -317 129 -4 -3 -11 -1 -18 4 -10 9 -93 28 -185 44 -92 16
-317 14 -425 -4z"/>
<path d="M3592 7938 c-72 -11 -212 -72 -281 -123 -125 -93 -244 -246 -312
-405 -103 -238 -129 -395 -124 -730 4 -235 25 -393 60 -446 20 -32 19 -34 -13
-34 -68 0 -129 -53 -163 -140 -89 -231 63 -635 298 -796 34 -24 81 -46 105
-51 l42 -8 21 -120 c39 -212 81 -342 161 -485 51 -92 64 -109 164 -208 111
-110 338 -280 480 -360 62 -35 200 -94 200 -85 0 3 6 1 13 -5 40 -33 379 -42
452 -12 17 7 39 16 50 20 138 52 186 76 289 145 477 316 610 503 701 980 22
116 28 130 54 132 64 5 193 109 278 223 86 115 152 291 160 425 9 147 -34 270
-114 325 -29 20 -42 22 -93 17 l-60 -5 0 27 c0 37 -26 59 -97 81 l-58 18 -17
89 c-9 52 -29 116 -47 151 -41 80 -40 77 -10 78 39 1 59 11 59 29 0 22 -31 33
-146 49 -236 34 -406 133 -663 386 -104 103 -140 106 -141 13 0 -72 102 -286
150 -313 10 -6 12 -12 5 -18 -13 -12 -169 51 -257 104 -35 20 -92 60 -128 88
-64 49 -96 78 -232 209 -39 37 -79 67 -89 67 -79 0 2 -235 126 -364 27 -29 63
-62 79 -74 16 -12 27 -25 24 -27 -3 -3 -41 6 -84 19 -252 80 -467 248 -636
496 -40 58 -76 108 -82 112 -24 16 -27 -14 -7 -74 58 -175 268 -399 483 -517
121 -67 245 -103 350 -102 60 0 108 15 108 33 0 9 -16 24 -76 73 -89 73 -171
170 -213 253 -34 66 -25 79 17 25 177 -222 509 -414 675 -389 37 6 47 11 47
27 0 10 -8 27 -18 37 -56 56 -151 214 -152 251 0 8 33 -17 73 -56 98 -96 141
-132 215 -181 138 -91 297 -151 397 -152 30 0 32 -3 58 -82 43 -135 68 -221
64 -225 -2 -2 -21 3 -43 11 -127 44 -405 62 -634 40 -222 -22 -325 -52 -387
-113 -32 -33 -43 -61 -43 -116 l0 -44 -42 15 c-49 17 -171 12 -222 -10 l-31
-13 -3 51 c-9 140 -110 199 -392 226 -258 25 -442 19 -608 -20 -46 -11 -85
-20 -88 -20 -10 0 -2 47 26 157 17 64 30 124 30 132 1 9 33 50 72 91 80 84
127 153 170 249 16 36 35 80 43 96 49 110 101 335 77 335 -18 0 -37 -36 -97
-185 -95 -235 -181 -383 -294 -505 -17 -19 -34 -46 -37 -60 -2 -14 -16 -64
-29 -111 -13 -47 -27 -115 -31 -150 -3 -35 -9 -67 -12 -70 -4 -4 -33 -14 -65
-24 -59 -18 -97 -52 -97 -85 0 -13 -6 -17 -20 -13 -14 4 -17 9 -11 17 11 12
10 25 -11 171 -18 122 -17 547 0 640 37 195 135 429 232 557 139 183 309 294
493 323 23 4 37 11 34 18 -5 17 -63 24 -125 15z m333 -1643 c50 -3 104 -10
120 -15 17 -4 55 -13 87 -20 31 -7 69 -23 85 -35 27 -22 28 -27 30 -117 2
-105 -25 -280 -58 -373 -21 -58 -73 -145 -87 -145 -13 -1 -137 -20 -162 -25
-45 -10 -384 -6 -453 5 -130 20 -157 42 -191 149 -30 94 -33 112 -52 286 -19
173 -14 219 26 240 94 49 385 71 655 50z m1600 -10 c50 -8 113 -22 141 -30 50
-14 52 -16 58 -57 11 -74 -20 -356 -50 -458 -35 -119 -73 -154 -183 -166 -25
-3 -57 -7 -71 -10 -14 -2 -96 -4 -182 -5 -176 0 -352 17 -385 37 -24 15 -55
69 -80 138 -19 52 -51 238 -59 337 -9 107 5 145 61 170 136 60 530 83 750 44z
m-2369 -106 c-3 -17 -6 -54 -6 -82 l0 -50 -50 54 c-27 30 -50 58 -50 62 0 9
78 46 99 47 10 0 12 -8 7 -31z m2722 11 l43 -21 -53 -59 c-29 -33 -54 -60 -55
-60 -2 0 -3 36 -3 80 0 90 2 92 68 60z m-2911 -70 c15 -6 67 -51 114 -100 l87
-90 11 -83 c31 -217 80 -307 182 -338 144 -44 517 -46 708 -5 90 20 134 57
176 148 32 71 75 237 75 292 0 23 6 50 13 59 25 34 176 47 257 23 l45 -13 11
-90 c28 -223 109 -388 201 -409 16 -3 44 -10 63 -14 111 -26 422 -34 566 -14
145 20 205 49 239 114 32 61 64 201 77 330 2 17 9 25 23 25 12 0 32 17 52 45
57 82 89 108 148 124 32 9 84 -30 105 -77 63 -143 8 -389 -131 -593 -26 -38
-138 -159 -149 -160 -3 0 -18 -8 -33 -18 -15 -11 -30 -16 -34 -13 -3 4 -1 26
6 51 6 24 15 75 21 113 6 37 12 82 15 98 32 215 48 402 36 410 -11 6 -30 -38
-42 -94 -5 -25 -25 -118 -44 -206 -30 -135 -48 -227 -90 -460 -13 -71 -66
-276 -89 -348 -54 -164 -148 -304 -285 -424 -251 -220 -484 -357 -673 -396
-77 -15 -248 -14 -321 4 -109 25 -280 112 -397 199 -19 14 -78 58 -130 97
-208 156 -333 312 -396 492 -34 99 -78 280 -120 496 -54 283 -72 373 -89 445
-9 36 -18 83 -21 104 -11 79 -55 127 -48 54 1 -18 5 -67 8 -108 4 -41 9 -88
11 -105 3 -16 7 -50 9 -75 3 -25 16 -109 30 -186 14 -78 26 -147 26 -154 0
-23 -75 32 -151 111 -155 162 -239 385 -217 577 9 73 42 141 78 159 30 15 32
16 67 3z"/>
<path d="M3771 6116 c-55 -58 -58 -210 -5 -263 66 -66 144 5 144 132 0 126
-77 198 -139 131z"/>
<path d="M5092 6118 c-44 -48 -53 -177 -17 -247 28 -55 101 -54 135 2 29 46
34 90 20 158 -21 98 -88 140 -138 87z"/>
<path d="M4408 5850 c-3 -8 -6 -48 -7 -89 -4 -139 -31 -225 -94 -304 -41 -50
-67 -99 -67 -125 0 -19 31 -52 65 -69 54 -27 214 -47 232 -29 15 15 -73 57
-177 83 -20 5 -36 16 -38 25 -2 9 17 45 43 80 62 85 85 165 82 283 -3 88 -27
177 -39 145z"/>
<path d="M4800 4894 c-157 -45 -239 -58 -385 -58 -162 -1 -224 6 -295 34 -28
11 -53 20 -55 20 -13 0 -2 -29 18 -48 54 -51 208 -77 417 -69 191 7 241 16
349 63 74 33 95 52 76 70 -17 18 -23 17 -125 -12z"/>
<path d="M5746 7602 c-3 -5 4 -24 14 -43 101 -176 180 -419 215 -660 9 -57 17
-117 20 -134 6 -38 6 -295 0 -355 -2 -25 -7 -72 -10 -106 -5 -47 -3 -64 9 -73
30 -25 53 39 76 209 29 210 6 473 -60 700 -17 58 -33 115 -35 128 -9 40 -65
175 -92 221 -52 89 -118 143 -137 113z"/>
<path d="M3818 6545 c-2 -1 -34 -5 -73 -8 -78 -6 -163 -35 -213 -74 -49 -37
-30 -51 51 -34 146 30 287 24 417 -19 64 -21 98 -20 111 3 20 35 -30 78 -121
105 -49 15 -165 33 -172 27z"/>
<path d="M5008 6524 c-102 -24 -158 -62 -158 -108 0 -27 36 -27 136 0 80 22
121 27 214 27 118 0 175 -5 187 -16 9 -10 73 -9 73 1 0 26 -86 77 -165 98 -64
17 -213 16 -287 -2z"/>
</g>
</svg>
